<svg width="582" height="546" viewBox="0 0 582 546" fill="none" xmlns="http://www.w3.org/2000/svg">
<g filter="url(#filter0_f_849_232)">
<path d="M481.057 100.66C468.285 87.7876 453.097 77.5689 436.366 70.5911C419.635 63.6132 401.69 60.0139 383.564 60C349.279 60.0056 316.246 72.895 291.006 96.1162C265.768 72.8911 232.733 60.0011 198.447 60C180.3 60.0189 162.336 63.6292 145.588 70.6232C128.841 77.6171 113.64 87.8567 100.862 100.752C46.36 155.53 46.3832 241.207 100.908 295.752L291.006 486L481.103 295.752C535.628 241.207 535.652 155.53 481.057 100.66Z" fill="#AA5656"/>
</g>
<defs>
<filter id="filter0_f_849_232" x="0" y="0" width="582" height="546" filterUnits="userSpaceOnUse" color-interpolation-filters="sRGB">
<feFlood flood-opacity="0" result="BackgroundImageFix"/>
<feBlend mode="normal" in="SourceGraphic" in2="BackgroundImageFix" result="shape"/>
<feGaussianBlur stdDeviation="30" result="effect1_foregroundBlur_849_232"/>
</filter>
</defs>
</svg>
